ffmpeg started on 2025-06-03 at 19:52:40
Report written to "D:\Convert\FFMetrics\reports\psnr_report-6.txt"
Log level: 32
Command line:
ffmpeg -hide_banner -nostdin -i "G:\\\xc0\xed\xe8\xec\xe5\\\xce\xed\xe3\xee\xe8\xed\xe3\xe8\\!_36_\xce\xf1\xe5\xed\xfc_2024\\DreamCast\\\xc1\xe0\xf8\xed\xff \xc1\xee\xe3\xe0\\\xd2\xc2-2\\[DC] Kami no Tou - Ouji no Kikan - 15_Telegram_HEVC.mkv" -i "G:\\\xc0\xed\xe8\xec\xe5\\\xce\xed\xe3\xee\xe8\xed\xe3\xe8\\!_36_\xce\xf1\xe5\xed\xfc_2024\\DreamCast\\\xc1\xe0\xf8\xed\xff \xc1\xee\xe3\xe0\\\xd2\xc2-2\\[DC] Kami no Tou - Ouji no Kikan - 15_Telegram.mp4" -lavfi "[0:v]settb=AVTB,setpts=PTS-STARTPTS,format=pix_fmts=yuv420p10,fps=24000/1001,scale=1920:1080:flags=bicubic[main];[1:v]settb=AVTB,setpts=PTS-STARTPTS,format=pix_fmts=yuv420p,fps=24000/1001,scale=1920:1080:flags=bicubic[ref];[main][ref]psnr=eof_action=endall:stats_file='D\\:/Convert/FFMetrics/logs/psnr_logfile-6.txt'" -f null -
Input #0, matroska,webm, from 'G:\Аниме\Онгоинги\!_36_Осень_2024\DreamCast\Башня Бога\ТВ-2\[DC] Kami no Tou - Ouji no Kikan - 15_Telegram_HEVC.mkv':
  Metadata:
    COMPATIBLE_BRANDS: isomiso2avc1mp41
    MAJOR_BRAND     : isom
    MINOR_VERSION   : 512
    ENCODER         : Lavf61.7.100
  Duration: 00:23:59.45, start: -0.021000, bitrate: 1018 kb/s
  Stream #0:0: Video: hevc (Main 10), yuv420p10le(tv, bt709, progressive), 1920x1080 [SAR 1:1 DAR 16:9], 23.98 fps, 23.98 tbr, 1k tbn (default)
      Metadata:
        HANDLER_NAME    : VideoHandler
        VENDOR_ID       : [0][0][0][0]
        ENCODER         : Lavc61.19.100 libx265
        BPS             : 821770
        DURATION        : 00:23:57.644708333
        NUMBER_OF_FRAMES: 34469
        NUMBER_OF_BYTES : 147676653
        _STATISTICS_WRITING_APP: mkvpropedit v66.0.0 ('Josie') 64-bit
        _STATISTICS_WRITING_DATE_UTC: 2025-05-29 18:31:33
        _STATISTICS_TAGS: BPS DURATION NUMBER_OF_FRAMES NUMBER_OF_BYTES
  Stream #0:1: Audio: aac (LC), 48000 Hz, stereo, fltp (default)
      Metadata:
        HANDLER_NAME    : SoundHandler
        VENDOR_ID       : [0][0][0][0]
        ENCODER         : Lavc61.19.100 aac
        BPS             : 193895
        DURATION        : 00:23:59.445000000
        NUMBER_OF_FRAMES: 67475
        NUMBER_OF_BYTES : 34887729
        _STATISTICS_WRITING_APP: mkvpropedit v66.0.0 ('Josie') 64-bit
        _STATISTICS_WRITING_DATE_UTC: 2025-05-29 18:31:33
        _STATISTICS_TAGS: BPS DURATION NUMBER_OF_FRAMES NUMBER_OF_BYTES
Input #1, mov,mp4,m4a,3gp,3g2,mj2, from 'G:\Аниме\Онгоинги\!_36_Осень_2024\DreamCast\Башня Бога\ТВ-2\[DC] Kami no Tou - Ouji no Kikan - 15_Telegram.mp4':
  Metadata:
    major_brand     : isom
    minor_version   : 512
    compatible_brands: isomiso2avc1mp41
    encoder         : Lavf60.16.100
  Duration: 00:23:59.39, start: 0.000000, bitrate: 3763 kb/s
  Stream #1:0[0x1](und): Video: h264 (High) (avc1 / 0x31637661), yuv420p(tv, bt709, progressive), 1920x1080 [SAR 1:1 DAR 16:9], 3619 kb/s, 23.98 fps, 23.98 tbr, 24k tbn (default)
      Metadata:
        handler_name    : VideoHandler
        vendor_id       : [0][0][0][0]
        encoder         : Lavc60.31.102 h264_qsv
  Stream #1:1[0x2](und): Audio: aac (HE-AACv2) (mp4a / 0x6134706D), 48000 Hz, stereo, fltp, 144 kb/s (default)
      Metadata:
        handler_name    : SoundHandler
        vendor_id       : [0][0][0][0]
Stream mapping:
  Stream #0:0 (hevc) -> settb:default
  Stream #1:0 (h264) -> settb:default
  psnr:default -> Stream #0:0 (wrapped_avframe)
  Stream #0:1 -> #0:1 (aac (native) -> pcm_s16le (native))
Output #0, null, to 'pipe:':
  Metadata:
    COMPATIBLE_BRANDS: isomiso2avc1mp41
    MAJOR_BRAND     : isom
    MINOR_VERSION   : 512
    encoder         : Lavf61.7.100
  Stream #0:0: Video: wrapped_avframe, yuv420p10le(tv, bt709, progressive), 1920x1080 [SAR 1:1 DAR 16:9], q=2-31, 200 kb/s, 23.98 fps, 23.98 tbn
      Metadata:
        encoder         : Lavc61.19.100 wrapped_avframe
  Stream #0:1: Audio: pcm_s16le, 48000 Hz, stereo, s16, 1536 kb/s (default)
      Metadata:
        HANDLER_NAME    : SoundHandler
        VENDOR_ID       : [0][0][0][0]
        _STATISTICS_TAGS: BPS DURATION NUMBER_OF_FRAMES NUMBER_OF_BYTES
        BPS             : 193895
        DURATION        : 00:23:59.445000000
        NUMBER_OF_FRAMES: 67475
        NUMBER_OF_BYTES : 34887729
        _STATISTICS_WRITING_APP: mkvpropedit v66.0.0 ('Josie') 64-bit
        _STATISTICS_WRITING_DATE_UTC: 2025-05-29 18:31:33
        encoder         : Lavc61.19.100 pcm_s16le
frame=  174 fps=0.0 q=-0.0 size=N/A time=00:00:07.25 bitrate=N/A speed=14.1x    frame=  345 fps=336 q=-0.0 size=N/A time=00:00:14.38 bitrate=N/A speed=  14x    frame=  608 fps=392 q=-0.0 size=N/A time=00:00:25.35 bitrate=N/A speed=16.3x    frame=  859 fps=417 q=-0.0 size=N/A time=00:00:35.82 bitrate=N/A speed=17.4x    frame= 1149 fps=444 q=-0.0 size=N/A time=00:00:47.92 bitrate=N/A speed=18.5x    frame= 1432 fps=462 q=-0.0 size=N/A time=00:00:59.72 bitrate=N/A speed=19.3x    frame= 1723 fps=478 q=-0.0 size=N/A time=00:01:11.86 bitrate=N/A speed=19.9x    frame= 2017 fps=488 q=-0.0 size=N/A time=00:01:24.12 bitrate=N/A speed=20.4x    frame= 2307 fps=497 q=-0.0 size=N/A time=00:01:36.22 bitrate=N/A speed=20.7x    frame= 2579 fps=500 q=-0.0 size=N/A time=00:01:47.56 bitrate=N/A speed=20.8x    frame= 2867 fps=506 q=-0.0 size=N/A time=00:01:59.61 bitrate=N/A speed=21.1x    frame= 3148 fps=508 q=-0.0 size=N/A time=00:02:11.29 bitrate=N/A speed=21.2x    frame= 3399 fps=507 q=-0.0 size=N/A time=00:02:21.76 bitrate=N/A speed=21.2x    frame= 3661 fps=507 q=-0.0 size=N/A time=00:02:32.69 bitrate=N/A speed=21.1x    frame= 3890 fps=503 q=-0.0 size=N/A time=00:02:42.24 bitrate=N/A speed=  21x    frame= 4133 fps=501 q=-0.0 size=N/A time=00:02:52.38 bitrate=N/A speed=20.9x    frame= 4347 fps=496 q=-0.0 size=N/A time=00:03:01.30 bitrate=N/A speed=20.7x    frame= 4580 fps=493 q=-0.0 size=N/A time=00:03:11.02 bitrate=N/A speed=20.6x    frame= 4805 fps=491 q=-0.0 size=N/A time=00:03:20.40 bitrate=N/A speed=20.5x    frame= 5066 fps=491 q=-0.0 size=N/A time=00:03:31.29 bitrate=N/A speed=20.5x    frame= 5295 fps=489 q=-0.0 size=N/A time=00:03:40.84 bitrate=N/A speed=20.4x    frame= 5511 fps=486 q=-0.0 size=N/A time=00:03:49.85 bitrate=N/A speed=20.3x    frame= 5718 fps=482 q=-0.0 size=N/A time=00:03:58.48 bitrate=N/A speed=20.1x    frame= 5954 fps=481 q=-0.0 size=N/A time=00:04:08.33 bitrate=N/A speed=20.1x    frame= 6180 fps=480 q=-0.0 size=N/A time=00:04:17.75 bitrate=N/A speed=  20x    frame= 6408 fps=478 q=-0.0 size=N/A time=00:04:27.26 bitrate=N/A speed=19.9x    frame= 6659 fps=478 q=-0.0 size=N/A time=00:04:37.73 bitrate=N/A speed=  20x    frame= 6947 fps=481 q=-0.0 size=N/A time=00:04:49.74 bitrate=N/A speed=20.1x    frame= 7219 fps=483 q=-0.0 size=N/A time=00:05:01.09 bitrate=N/A speed=20.1x    frame= 7479 fps=483 q=-0.0 size=N/A time=00:05:11.93 bitrate=N/A speed=20.2x    frame= 7718 fps=483 q=-0.0 size=N/A time=00:05:21.90 bitrate=N/A speed=20.1x    frame= 7979 fps=483 q=-0.0 size=N/A time=00:05:32.79 bitrate=N/A speed=20.2x    frame= 8230 fps=484 q=-0.0 size=N/A time=00:05:43.25 bitrate=N/A speed=20.2x    frame= 8485 fps=484 q=-0.0 size=N/A time=00:05:53.89 bitrate=N/A speed=20.2x    frame= 8748 fps=485 q=-0.0 size=N/A time=00:06:04.86 bitrate=N/A speed=20.2x    frame= 9028 fps=486 q=-0.0 size=N/A time=00:06:16.54 bitrate=N/A speed=20.3x    frame= 9303 fps=488 q=-0.0 size=N/A time=00:06:28.01 bitrate=N/A speed=20.3x    frame= 9582 fps=489 q=-0.0 size=N/A time=00:06:39.64 bitrate=N/A speed=20.4x    frame= 9863 fps=491 q=-0.0 size=N/A time=00:06:51.36 bitrate=N/A speed=20.5x    frame=10160 fps=493 q=-0.0 size=N/A time=00:07:03.75 bitrate=N/A speed=20.5x    frame=10429 fps=493 q=-0.0 size=N/A time=00:07:15.01 bitrate=N/A speed=20.6x    frame=10716 fps=495 q=-0.0 size=N/A time=00:07:26.94 bitrate=N/A speed=20.6x    frame=10964 fps=495 q=-0.0 size=N/A time=00:07:37.29 bitrate=N/A speed=20.6x    frame=11213 fps=494 q=-0.0 size=N/A time=00:07:47.67 bitrate=N/A speed=20.6x    frame=11481 fps=495 q=-0.0 size=N/A time=00:07:58.85 bitrate=N/A speed=20.6x    frame=11764 fps=496 q=-0.0 size=N/A time=00:08:10.65 bitrate=N/A speed=20.7x    frame=12053 fps=497 q=-0.0 size=N/A time=00:08:22.71 bitrate=N/A speed=20.7x    frame=12336 fps=498 q=-0.0 size=N/A time=00:08:34.51 bitrate=N/A speed=20.8x    frame=12608 fps=499 q=-0.0 size=N/A time=00:08:45.85 bitrate=N/A speed=20.8x    frame=12885 fps=500 q=-0.0 size=N/A time=00:08:57.45 bitrate=N/A speed=20.8x    frame=13166 fps=501 q=-0.0 size=N/A time=00:09:09.13 bitrate=N/A speed=20.9x    frame=13452 fps=502 q=-0.0 size=N/A time=00:09:21.06 bitrate=N/A speed=20.9x    frame=13727 fps=502 q=-0.0 size=N/A time=00:09:32.53 bitrate=N/A speed=  21x    frame=14021 fps=503 q=-0.0 size=N/A time=00:09:44.79 bitrate=N/A speed=  21x    frame=14292 fps=504 q=-0.0 size=N/A time=00:09:56.09 bitrate=N/A speed=  21x    frame=14579 fps=505 q=-0.0 size=N/A time=00:10:08.06 bitrate=N/A speed=21.1x    frame=14860 fps=506 q=-0.0 size=N/A time=00:10:19.78 bitrate=N/A speed=21.1x    frame=15151 fps=507 q=-0.0 size=N/A time=00:10:31.92 bitrate=N/A speed=21.1x    frame=15432 fps=507 q=-0.0 size=N/A time=00:10:43.64 bitrate=N/A speed=21.2x    frame=15736 fps=509 q=-0.0 size=N/A time=00:10:56.32 bitrate=N/A speed=21.2x    frame=16025 fps=509 q=-0.0 size=N/A time=00:11:08.37 bitrate=N/A speed=21.2x    frame=16288 fps=509 q=-0.0 size=N/A time=00:11:19.34 bitrate=N/A speed=21.2x    frame=16546 fps=509 q=-0.0 size=N/A time=00:11:30.10 bitrate=N/A speed=21.2x    frame=16842 fps=510 q=-0.0 size=N/A time=00:11:42.45 bitrate=N/A speed=21.3x    frame=17132 fps=511 q=-0.0 size=N/A time=00:11:54.54 bitrate=N/A speed=21.3x    frame=17413 fps=512 q=-0.0 size=N/A time=00:12:06.26 bitrate=N/A speed=21.3x    frame=17707 fps=513 q=-0.0 size=N/A time=00:12:18.52 bitrate=N/A speed=21.4x    frame=17996 fps=513 q=-0.0 size=N/A time=00:12:30.62 bitrate=N/A speed=21.4x    frame=18264 fps=513 q=-0.0 size=N/A time=00:12:41.76 bitrate=N/A speed=21.4x    frame=18542 fps=514 q=-0.0 size=N/A time=00:12:53.35 bitrate=N/A speed=21.4x    frame=18816 fps=514 q=-0.0 size=N/A time=00:13:04.78 bitrate=N/A speed=21.4x    frame=19107 fps=515 q=-0.0 size=N/A time=00:13:16.92 bitrate=N/A speed=21.5x    frame=19386 fps=515 q=-0.0 size=N/A time=00:13:28.55 bitrate=N/A speed=21.5x    frame=19656 fps=515 q=-0.0 size=N/A time=00:13:39.81 bitrate=N/A speed=21.5x    frame=19934 fps=515 q=-0.0 size=N/A time=00:13:51.41 bitrate=N/A speed=21.5x    frame=20212 fps=516 q=-0.0 size=N/A time=00:14:03.00 bitrate=N/A speed=21.5x    frame=20504 fps=516 q=-0.0 size=N/A time=00:14:15.18 bitrate=N/A speed=21.5x    frame=20776 fps=517 q=-0.0 size=N/A time=00:14:26.53 bitrate=N/A speed=21.5x    frame=21061 fps=517 q=-0.0 size=N/A time=00:14:38.41 bitrate=N/A speed=21.6x    frame=21312 fps=517 q=-0.0 size=N/A time=00:14:48.88 bitrate=N/A speed=21.6x    frame=21607 fps=517 q=-0.0 size=N/A time=00:15:01.19 bitrate=N/A speed=21.6x    frame=21890 fps=518 q=-0.0 size=N/A time=00:15:12.99 bitrate=N/A speed=21.6x    frame=22152 fps=518 q=-0.0 size=N/A time=00:15:23.92 bitrate=N/A speed=21.6x    frame=22431 fps=518 q=-0.0 size=N/A time=00:15:35.55 bitrate=N/A speed=21.6x    frame=22708 fps=518 q=-0.0 size=N/A time=00:15:47.11 bitrate=N/A speed=21.6x    frame=22953 fps=518 q=-0.0 size=N/A time=00:15:57.33 bitrate=N/A speed=21.6x    frame=23174 fps=517 q=-0.0 size=N/A time=00:16:06.54 bitrate=N/A speed=21.5x    frame=23403 fps=516 q=-0.0 size=N/A time=00:16:16.10 bitrate=N/A speed=21.5x    frame=23622 fps=515 q=-0.0 size=N/A time=00:16:25.23 bitrate=N/A speed=21.5x    frame=23871 fps=514 q=-0.0 size=N/A time=00:16:35.61 bitrate=N/A speed=21.4x    frame=24141 fps=514 q=-0.0 size=N/A time=00:16:46.88 bitrate=N/A speed=21.5x    frame=24415 fps=514 q=-0.0 size=N/A time=00:16:58.30 bitrate=N/A speed=21.5x    frame=24683 fps=515 q=-0.0 size=N/A time=00:17:09.48 bitrate=N/A speed=21.5x    frame=24959 fps=515 q=-0.0 size=N/A time=00:17:20.99 bitrate=N/A speed=21.5x    frame=25236 fps=515 q=-0.0 size=N/A time=00:17:32.55 bitrate=N/A speed=21.5x    frame=25525 fps=516 q=-0.0 size=N/A time=00:17:44.60 bitrate=N/A speed=21.5x    frame=25734 fps=514 q=-0.0 size=N/A time=00:17:53.32 bitrate=N/A speed=21.5x    frame=25950 fps=513 q=-0.0 size=N/A time=00:18:02.33 bitrate=N/A speed=21.4x    frame=26173 fps=513 q=-0.0 size=N/A time=00:18:11.63 bitrate=N/A speed=21.4x    frame=26378 fps=511 q=-0.0 size=N/A time=00:18:20.18 bitrate=N/A speed=21.3x    frame=26614 fps=511 q=-0.0 size=N/A time=00:18:30.02 bitrate=N/A speed=21.3x    frame=26883 fps=511 q=-0.0 size=N/A time=00:18:41.24 bitrate=N/A speed=21.3x    frame=27150 fps=511 q=-0.0 size=N/A time=00:18:52.38 bitrate=N/A speed=21.3x    frame=27408 fps=511 q=-0.0 size=N/A time=00:19:03.14 bitrate=N/A speed=21.3x    frame=27684 fps=511 q=-0.0 size=N/A time=00:19:14.65 bitrate=N/A speed=21.3x    frame=27944 fps=511 q=-0.0 size=N/A time=00:19:25.49 bitrate=N/A speed=21.3x    frame=28194 fps=511 q=-0.0 size=N/A time=00:19:35.92 bitrate=N/A speed=21.3x    frame=28471 fps=511 q=-0.0 size=N/A time=00:19:47.47 bitrate=N/A speed=21.3x    frame=28755 fps=511 q=-0.0 size=N/A time=00:19:59.32 bitrate=N/A speed=21.3x    frame=29044 fps=512 q=-0.0 size=N/A time=00:20:11.37 bitrate=N/A speed=21.4x    frame=29293 fps=512 q=-0.0 size=N/A time=00:20:21.76 bitrate=N/A speed=21.3x    frame=29526 fps=511 q=-0.0 size=N/A time=00:20:31.48 bitrate=N/A speed=21.3x    frame=29806 fps=511 q=-0.0 size=N/A time=00:20:43.15 bitrate=N/A speed=21.3x    frame=30084 fps=512 q=-0.0 size=N/A time=00:20:54.75 bitrate=N/A speed=21.3x    frame=30334 fps=511 q=-0.0 size=N/A time=00:21:05.18 bitrate=N/A speed=21.3x    frame=30600 fps=511 q=-0.0 size=N/A time=00:21:16.27 bitrate=N/A speed=21.3x    frame=30862 fps=511 q=-0.0 size=N/A time=00:21:27.20 bitrate=N/A speed=21.3x    frame=31113 fps=511 q=-0.0 size=N/A time=00:21:37.67 bitrate=N/A speed=21.3x    frame=31357 fps=511 q=-0.0 size=N/A time=00:21:47.84 bitrate=N/A speed=21.3x    frame=31614 fps=511 q=-0.0 size=N/A time=00:21:58.56 bitrate=N/A speed=21.3x    frame=31856 fps=510 q=-0.0 size=N/A time=00:22:08.66 bitrate=N/A speed=21.3x    frame=32118 fps=510 q=-0.0 size=N/A time=00:22:19.58 bitrate=N/A speed=21.3x    frame=32353 fps=510 q=-0.0 size=N/A time=00:22:29.38 bitrate=N/A speed=21.3x    frame=32514 fps=508 q=-0.0 size=N/A time=00:22:36.10 bitrate=N/A speed=21.2x    frame=32657 fps=506 q=-0.0 size=N/A time=00:22:42.06 bitrate=N/A speed=21.1x    frame=32813 fps=505 q=-0.0 size=N/A time=00:22:48.57 bitrate=N/A speed=21.1x    frame=32956 fps=503 q=-0.0 size=N/A time=00:22:54.53 bitrate=N/A speed=  21x    frame=33104 fps=501 q=-0.0 size=N/A time=00:23:00.71 bitrate=N/A speed=20.9x    frame=33270 fps=500 q=-0.0 size=N/A time=00:23:07.63 bitrate=N/A speed=20.9x    frame=33437 fps=499 q=-0.0 size=N/A time=00:23:14.60 bitrate=N/A speed=20.8x    frame=33577 fps=497 q=-0.0 size=N/A time=00:23:20.44 bitrate=N/A speed=20.7x    frame=33731 fps=495 q=-0.0 size=N/A time=00:23:26.86 bitrate=N/A speed=20.7x    frame=33903 fps=494 q=-0.0 size=N/A time=00:23:34.03 bitrate=N/A speed=20.6x    frame=34043 fps=492 q=-0.0 size=N/A time=00:23:39.87 bitrate=N/A speed=20.5x    frame=34211 fps=491 q=-0.0 size=N/A time=00:23:46.88 bitrate=N/A speed=20.5x    frame=34412 fps=490 q=-0.0 size=N/A time=00:23:55.26 bitrate=N/A speed=20.5x    [Parsed_psnr_10 @ 000001ac68c7a880] PSNR y:50.340892 u:52.484816 v:52.344815 average:50.928447 min:39.381266 max:inf
[out#0/null @ 000001ac66354580] video:14811KiB audio:269900KiB subtitle:0KiB other streams:0KiB global headers:0KiB muxing overhead: unknown
frame=34469 fps=490 q=-0.0 Lsize=N/A time=00:23:57.64 bitrate=N/A speed=20.4x    
